<svg width="1062" height="1032" viewBox="0 0 1062 1032" fill="none" xmlns="http://www.w3.org/2000/svg">
<path d="M321.357 15.8662C219.354 96.3977 154 220.402 154 359.5C154 602.229 353.009 799 598.5 799C843.28 799 1041.85 603.366 1042.99 361.605C1055.38 406.467 1062 453.713 1062 502.5C1062 794.935 824.263 1032 531 1032C237.737 1032 0 794.935 0 502.5C0 284.309 132.347 96.9403 321.357 15.8662Z" fill="#FDC959"/>
<path d="M613.5 0C807.076 0 964 154.686 964 345.5C964 508.623 849.317 645.341 695.094 681.588C785.946 634.935 848 541.125 848 433C848 278.36 721.073 153 564.5 153C407.927 153 281 278.36 281 433C281 441.576 281.391 450.062 282.155 458.441C269.742 423.05 263 385.051 263 345.5C263 154.686 419.924 0 613.5 0Z" fill="#FDC959"/>
</svg>
